HIERARCHY
ROOT Hips
{
  OFFSET 43.4891 92.7559 48.1285
  CHANNELS 6 Xposition Yposition Zposition Zrotation Xrotation Yrotation
  JOINT Spine
  {
    OFFSET 0 8 0
    CHANNELS 6 Xposition Yposition Zposition Zrotation Xrotation Yrotation
    JOINT Spine1
    {
      OFFSET 0 8 0
      CHANNELS 6 Xposition Yposition Zposition Zrotation Xrotation Yrotation
      JOINT Spine2
      {
        OFFSET 0 8 0
        CHANNELS 6 Xposition Yposition Zposition Zrotation Xrotation Yrotation
        JOINT Spine3
        {
          OFFSET 0 8 0
          CHANNELS 6 Xposition Yposition Zposition Zrotation Xrotation Yrotation
          JOINT Neck
          {
            OFFSET 0 17 0
            CHANNELS 6 Xposition Yposition Zposition Zrotation Xrotation Yrotation
            JOINT Head
            {
              OFFSET 0 10.8 0
              CHANNELS 6 Xposition Yposition Zposition Zrotation Xrotation Yrotation
              End Site
              {
                OFFSET 0 20.25 0
              }
            }
          }
          JOINT LeftShoulder
          {
            OFFSET 5 17 0
            CHANNELS 6 Xposition Yposition Zposition Zrotation Xrotation Yrotation
            JOINT LeftShoulder2
            {
              OFFSET 6.45 0 0
              CHANNELS 6 Xposition Yposition Zposition Zrotation Xrotation Yrotation
              JOINT LeftArm
              {
                OFFSET 6.45 0 0
                CHANNELS 6 Xposition Yposition Zposition Zrotation Xrotation Yrotation
                JOINT LeftForeArm
                {
                  OFFSET 0 -32.4 -2
                  CHANNELS 6 Xposition Yposition Zposition Zrotation Xrotation Yrotation
                  JOINT LeftHand
                  {
                    OFFSET 0 -25.65 2
                    CHANNELS 6 Xposition Yposition Zposition Zrotation Xrotation Yrotation
                    JOINT LeftHandThumb1
                    {
                      OFFSET -0.5 -1.5 2.65
                      CHANNELS 6 Xposition Yposition Zposition Zrotation Xrotation Yrotation
                      JOINT LeftHandThumb2
                      {
                        OFFSET 0 -3.8 3.7
                        CHANNELS 6 Xposition Yposition Zposition Zrotation Xrotation Yrotation
                        JOINT LeftHandThumb3
                        {
                          OFFSET 0 -3 2.7
                          CHANNELS 6 Xposition Yposition Zposition Zrotation Xrotation Yrotation
                          End Site
                          {
                            OFFSET 0 -2.3 1.8
                          }
                        }
                      }
                    }
                    JOINT LeftHandIndex
                    {
                      OFFSET 0 -1.9 1.6
                      CHANNELS 6 Xposition Yposition Zposition Zrotation Xrotation Yrotation
                      JOINT LeftHandIndex1
                      {
                        OFFSET 0 -8.3 1.9
                        CHANNELS 6 Xposition Yposition Zposition Zrotation Xrotation Yrotation
                        JOINT LeftHandIndex2
                        {
                          OFFSET 0 -4.5 0
                          CHANNELS 6 Xposition Yposition Zposition Zrotation Xrotation Yrotation
                          JOINT LeftHandIndex3
                          {
                            OFFSET 0 -3.4 0
                            CHANNELS 6 Xposition Yposition Zposition Zrotation Xrotation Yrotation
                            End Site
                            {
                              OFFSET 0 -2.6 0
                            }
                          }
                        }
                      }
                    }
                    JOINT LeftHandMiddle
                    {
                      OFFSET -0.25 -2.2 0.4
                      CHANNELS 6 Xposition Yposition Zposition Zrotation Xrotation Yrotation
                      JOINT LeftHandMiddle1
                      {
                        OFFSET 0 -8.3 1
                        CHANNELS 6 Xposition Yposition Zposition Zrotation Xrotation Yrotation
                        JOINT LeftHandMiddle2
                        {
                          OFFSET 0 -4.65 0
                          CHANNELS 6 Xposition Yposition Zposition Zrotation Xrotation Yrotation
                          JOINT LeftHandMiddle3
                          {
                            OFFSET 0 -3.3 0
                            CHANNELS 6 Xposition Yposition Zposition Zrotation Xrotation Yrotation
                            End Site
                            {
                              OFFSET 0 -2.7 0
                            }
                          }
                        }
                      }
                    }
                    JOINT LeftHandRing
                    {
                      OFFSET -0.5 -2.15 -0.8
                      CHANNELS 6 Xposition Yposition Zposition Zrotation Xrotation Yrotation
                      JOINT LeftHandRing1
                      {
                        OFFSET 0 -7.75 -0.2
                        CHANNELS 6 Xposition Yposition Zposition Zrotation Xrotation Yrotation
                        JOINT LeftHandRing2
                        {
                          OFFSET 0 -3.8 0
                          CHANNELS 6 Xposition Yposition Zposition Zrotation Xrotation Yrotation
                          JOINT LeftHandRing3
                          {
                            OFFSET 0 -3.4 0
                            CHANNELS 6 Xposition Yposition Zposition Zrotation Xrotation Yrotation
                            End Site
                            {
                              OFFSET 0 -2.6 0
                            }
                          }
                        }
                      }
                    }
                    JOINT LeftHandPinky
                    {
                      OFFSET -0.75 -1.75 -1.85
                      CHANNELS 6 Xposition Yposition Zposition Zrotation Xrotation Yrotation
                      JOINT LeftHandPinky1
                      {
                        OFFSET 0 -7.15 -1
                        CHANNELS 6 Xposition Yposition Zposition Zrotation Xrotation Yrotation
                        JOINT LeftHandPinky2
                        {
                          OFFSET 0 -3 0
                          CHANNELS 6 Xposition Yposition Zposition Zrotation Xrotation Yrotation
                          JOINT LeftHandPinky3
                          {
                            OFFSET 0 -2.35 0
                            CHANNELS 6 Xposition Yposition Zposition Zrotation Xrotation Yrotation
                            End Site
                            {
                              OFFSET 0 -2.1 0
                            }
                          }
                        }
                      }
                    }
                  }
                }
              }
            }
          }
          JOINT RightShoulder
          {
            OFFSET -5 17 0
            CHANNELS 6 Xposition Yposition Zposition Zrotation Xrotation Yrotation
            JOINT RightShoulder2
            {
              OFFSET -6.45 0 0
              CHANNELS 6 Xposition Yposition Zposition Zrotation Xrotation Yrotation
              JOINT RightArm
              {
                OFFSET -6.45 0 0
                CHANNELS 6 Xposition Yposition Zposition Zrotation Xrotation Yrotation
                JOINT RightForeArm
                {
                  OFFSET 0 -32.4 -2
                  CHANNELS 6 Xposition Yposition Zposition Zrotation Xrotation Yrotation
                  JOINT RightHand
                  {
                    OFFSET 0 -25.65 2
                    CHANNELS 6 Xposition Yposition Zposition Zrotation Xrotation Yrotation
                    JOINT RightHandThumb1
                    {
                      OFFSET 0.5 -1.5 2.65
                      CHANNELS 6 Xposition Yposition Zposition Zrotation Xrotation Yrotation
                      JOINT RightHandThumb2
                      {
                        OFFSET 0 -3.8 3.7
                        CHANNELS 6 Xposition Yposition Zposition Zrotation Xrotation Yrotation
                        JOINT RightHandThumb3
                        {
                          OFFSET 0 -3 2.7
                          CHANNELS 6 Xposition Yposition Zposition Zrotation Xrotation Yrotation
                          End Site
                          {
                            OFFSET 0 -2.3 1.8
                          }
                        }
                      }
                    }
                    JOINT RightHandIndex
                    {
                      OFFSET 0 -1.9 1.6
                      CHANNELS 6 Xposition Yposition Zposition Zrotation Xrotation Yrotation
                      JOINT RightHandIndex1
                      {
                        OFFSET 0 -8.3 1.9
                        CHANNELS 6 Xposition Yposition Zposition Zrotation Xrotation Yrotation
                        JOINT RightHandIndex2
                        {
                          OFFSET 0 -4.5 0
                          CHANNELS 6 Xposition Yposition Zposition Zrotation Xrotation Yrotation
                          JOINT RightHandIndex3
                          {
                            OFFSET 0 -3.4 0
                            CHANNELS 6 Xposition Yposition Zposition Zrotation Xrotation Yrotation
                            End Site
                            {
                              OFFSET 0 -2.6 0
                            }
                          }
                        }
                      }
                    }
                    JOINT RightHandMiddle
                    {
                      OFFSET 0.25 -2.2 0.4
                      CHANNELS 6 Xposition Yposition Zposition Zrotation Xrotation Yrotation
                      JOINT RightHandMiddle1
                      {
                        OFFSET 0 -8.3 1
                        CHANNELS 6 Xposition Yposition Zposition Zrotation Xrotation Yrotation
                        JOINT RightHandMiddle2
                        {
                          OFFSET 0 -4.65 0
                          CHANNELS 6 Xposition Yposition Zposition Zrotation Xrotation Yrotation
                          JOINT RightHandMiddle3
                          {
                            OFFSET 0 -3.3 0
                            CHANNELS 6 Xposition Yposition Zposition Zrotation Xrotation Yrotation
                            End Site
                            {
                              OFFSET 0 -2.7 0
                            }
                          }
                        }
                      }
                    }
                    JOINT RightHandRing
                    {
                      OFFSET 0.5 -2.15 -0.8
                      CHANNELS 6 Xposition Yposition Zposition Zrotation Xrotation Yrotation
                      JOINT RightHandRing1
                      {
                        OFFSET 0 -7.75 -0.2
                        CHANNELS 6 Xposition Yposition Zposition Zrotation Xrotation Yrotation
                        JOINT RightHandRing2
                        {
                          OFFSET 0 -3.8 0
                          CHANNELS 6 Xposition Yposition Zposition Zrotation Xrotation Yrotation
                          JOINT RightHandRing3
                          {
                            OFFSET 0 -3.4 0
                            CHANNELS 6 Xposition Yposition Zposition Zrotation Xrotation Yrotation
                            End Site
                            {
                              OFFSET 0 -2.6 0
                            }
                          }
                        }
                      }
                    }
                    JOINT RightHandPinky
                    {
                      OFFSET 0.75 -1.75 -1.85
                      CHANNELS 6 Xposition Yposition Zposition Zrotation Xrotation Yrotation
                      JOINT RightHandPinky1
                      {
                        OFFSET 0 -7.15 -1
                        CHANNELS 6 Xposition Yposition Zposition Zrotation Xrotation Yrotation
                        JOINT RightHandPinky2
                        {
                          OFFSET 0 -3 0
                          CHANNELS 6 Xposition Yposition Zposition Zrotation Xrotation Yrotation
                          JOINT RightHandPinky3
                          {
                            OFFSET 0 -2.35 0
                            CHANNELS 6 Xposition Yposition Zposition Zrotation Xrotation Yrotation
                            End Site
                            {
                              OFFSET 0 -2.1 0
                            }
                          }
                        }
                      }
                    }
                  }
                }
              }
            }
          }
        }
      }
    }
  }
  JOINT LeftUpLeg
  {
    OFFSET 8 0 0
    CHANNELS 6 Xposition Yposition Zposition Zrotation Xrotation Yrotation
    JOINT LeftLeg
    {
      OFFSET 0 -45 -1
      CHANNELS 6 Xposition Yposition Zposition Zrotation Xrotation Yrotation
      JOINT LeftFoot
      {
        OFFSET 0 -41 -2
        CHANNELS 6 Xposition Yposition Zposition Zrotation Xrotation Yrotation
        JOINT LeftToeBase
        {
          OFFSET 0 -7.5 12.5
          CHANNELS 6 Xposition Yposition Zposition Zrotation Xrotation Yrotation
          JOINT LeftFootToe
          {
            OFFSET 0 0 4
            CHANNELS 6 Xposition Yposition Zposition Zrotation Xrotation Yrotation
            End Site
            {
              OFFSET 0 0 0
            }
          }
        }
      }
    }
  }
  JOINT RightUpLeg
  {
    OFFSET -8 0 0
    CHANNELS 6 Xposition Yposition Zposition Zrotation Xrotation Yrotation
    JOINT RightLeg
    {
      OFFSET 0 -45 -1
      CHANNELS 6 Xposition Yposition Zposition Zrotation Xrotation Yrotation
      JOINT RightFoot
      {
        OFFSET 0 -41 -2
        CHANNELS 6 Xposition Yposition Zposition Zrotation Xrotation Yrotation
        JOINT RightToeBase
        {
          OFFSET 0 -7.5 12.5
          CHANNELS 6 Xposition Yposition Zposition Zrotation Xrotation Yrotation
          JOINT RightFootToe
          {
            OFFSET 0 0 4
            CHANNELS 6 Xposition Yposition Zposition Zrotation Xrotation Yrotation
            End Site
            {
              OFFSET 0 0 0
            }
          }
        }
      }
    }
  }
}
MOTION
Frames:	4
Frame Time:	0.0111111
0 93.5 0 0 0 -0 0 8 0 0 0 -0 0 8 0 0 0 -0 0 8 0 0 0 -0 0 8 0 0 0 -0 0 17 0 0 0 -0 0 10.8 0 0 0 -0 5 17 0 0 0 -0 6.45 0 0 0 0 -0 6.45 0 0 90.0002 0 -0 0 -32.4 -2 0 0 -0 0 -25.65 2 0 0 -0 -0.5 -1.5 2.65 0 0 -0 0 -3.8 3.7 0 0 -0 0 -3 2.7 -0 0 0.00822918 -2.84217e-14 -1.9 1.6 0 0 -0 2.84217e-14 -8.3 1.9 0 0 -0 0 -4.5 0 0 0 -0 0 -3.4 0 0 0 -0 -0.25 -2.2 0.4 0 0 -0 2.84217e-14 -8.3 1 0 0 -0 0 -4.65 0 0 0 -0 0 -3.3 0 0 0 -0 -0.5 -2.15 -0.8 0 0 -0 0 -7.75 -0.2 0 0 -0 2.84217e-14 -3.8 0 0 0 -0 0 -3.4 0 0 0 -0 -0.75 -1.75 -1.85 0 0 -0 0 -7.15 -1 0 0 -0 0 -3 0 0 0 -0 0 -2.35 0 0 0 -0 -5 17 0 0 0 -0 -6.45 0 0 0 0 -0 -6.45 0 0 -90.0002 0 -0 0 -32.4 -2 0 0 -0 0 -25.65 2 0 0 -0 0.5 -1.5 2.65 0 0 -0 0 -3.8 3.7 0 0 -0 0 -3 2.7 0 0 -0 2.84217e-14 -1.9 1.6 0 0 -0 -2.84217e-14 -8.3 1.9 0 0 -0 0 -4.5 0 0 0 -0 0 -3.4 0 0 0 -0 0.25 -2.2 0.4 0 0 -0 -2.84217e-14 -8.3 1 0 0 -0 0 -4.65 0 0 0 -0 0 -3.3 0 0 0 -0 0.5 -2.15 -0.8 0 0 -0 0 -7.75 -0.2 0 0 -0 -2.84217e-14 -3.8 0 0 0 -0 0 -3.4 0 0 0 -0 0.75 -1.75 -1.85 0 0 -0 0 -7.15 -1 0.00870501 0 -0 0 -3 0 0 0 -0 0 -2.35 0 -1.55301e-18 0 -0 8 0 0 0 0 -0 0 -45 -1 0.000342273 0 -0 0 -41 -2 0 0 -0 1.77636e-15 -7.5 12.5 -4.85314e-20 0 -0 0 0 4 0 0 -0 -8 0 0 0 0 -0 0 -45 -1 0 0 -0 0 -41 -2 0 0 -0 0 -7.5 12.5 0 0 -0 0 0 4 0 0 -0 
43.1083 92.8199 46.0646 -0.0207066 -2.25644 -88.8243 0 8 7.10543e-15 -2.88577 -2.89402 2.15695 7.10543e-15 8 -7.10543e-15 0.365772 1.41434 0.50254 -7.10543e-15 8 0 0.184431 0.706798 0.252394 0 8 7.10543e-15 0.184414 0.706734 0.252357 0 17 -1.42109e-14 1.31255 0.896648 0.104231 7.10543e-15 10.8 -7.10543e-15 4.74393 9.00304 -0.172141 5 17 0 -0.8564 0.468853 0.211521 6.45 0 -7.10543e-15 0.300252 -0.97325 19.8922 6.45 0 0 0.51866 -6.67182 -28.3291 0 -32.4 -2 -6.83308 -6.01891 -6.93495 0 -25.65 2 2.44611 -1.54493 4.75483 -0.5 -1.5 2.65 -8.99372 -5.32886 -22.6852 7.10543e-15 -3.8 3.7 -0.117942 2.30317 -0.0407876 0 -3 2.7 -0.00866127 46.4654 0.0119473 7.10543e-15 -1.9 1.6 -0 -1.09332e-15 -0 0 -8.3 1.9 -7.50542 -1.01131 -0.0445426 -7.10543e-15 -4.5 0 -6.87821 -1.59028e-15 -7.95139e-15 7.10543e-15 -3.4 -3.55271e-15 -6.28568 -7.95139e-16 -5.56597e-15 -0.25 -2.2 0.4 -0 -1.09332e-15 -0 -7.10543e-15 -8.3 1 -8.73257 0.688597 0.13938 0 -4.65 0 -7.34679 5.96354e-16 -7.15625e-15 0 -3.3 3.55271e-15 -6.67532 0 -1.59028e-15 -0.5 -2.15 -0.8 -0 -1.09332e-15 -0 -7.10543e-15 -7.75 -0.2 -11.0638 3.7057 0.57165 0 -3.8 -7.10543e-15 -1.67511 -1.39149e-15 -7.95139e-16 0 -3.4 0 -1.6374 -5.96354e-16 7.95139e-16 -0.75 -1.75 -1.85 -0 -1.09332e-15 -0 0 -7.15 -1 -12.339 5.28519 0.85234 7.10543e-15 -3 0 -3.07226 1.59028e-15 -3.18055e-15 0 -2.35 0 -2.94765 3.97569e-16 -7.95139e-16 -5 17 -7.10543e-15 1.81356 -2.56573 -9.86728 -6.45 0 0 -0.465068 -0.645824 -16.5565 -6.45 0 -7.10543e-15 -1.99437 -5.26849 29.1687 -3.55271e-15 -32.4 -2 1.27665 -8.18619 11.0259 3.55271e-15 -25.65 2 -0.112309 -2.00531 9.99246 0.5 -1.5 2.65 -0.0381409 -0.52457 1.95789 -3.55271e-15 -3.8 3.7 -5.09111e-16 9.85868 6.45645e-15 0 -3 2.7 -1.63712e-15 0.843834 3.1809e-15 -3.55271e-15 -1.9 1.6 4.96962e-17 -3.35449e-15 -6.36111e-15 0 -8.3 1.9 8.56499 0.344775 -0.0566467 0 -4.5 1.77636e-15 4.8775 3.97569e-15 -0 0 -3.4 -5.32907e-15 4.571 0 -9.54166e-15 0.25 -2.2 0.4 4.96962e-17 -3.35449e-15 -6.36111e-15 0 -8.3 1 6.40638 0.0673676 -0.0271147 0 -4.65 -3.55271e-15 17.7718 4.77083e-15 3.18055e-15 -7.10543e-15 -3.3 0 14.4124 -3.18055e-15 9.54166e-15 0.5 -2.15 -0.8 4.96962e-17 -3.35449e-15 -6.36111e-15 0 -7.75 -0.2 2.15797 -0.498895 -3.18068e-15 0 -3.8 -8.88178e-15 9.46637 -2.38542e-15 -3.18055e-15 0 -3.4 3.55271e-15 8.38559 1.59028e-15 -3.18055e-15 0.75 -1.75 -1.85 4.96962e-17 -3.35449e-15 -6.36111e-15 0 -7.15 -1 0.00870501 -0.79777 -3.18086e-15 0 -3 1.77636e-15 2.98177e-16 1.14301e-15 3.18055e-15 0 -2.35 -1.77636e-15 1.88845e-15 2.08724e-15 3.18055e-15 8 -1.42109e-14 7.10543e-15 0.518063 0.223553 -5.01905 0 -45 -1 -0.00686455 3.8326 0.107819 7.10543e-15 -41 -2 -2.76566 -4.22125 0.704617 -7.10543e-15 -7.5 12.5 2.69403e-36 1.94126e-19 -7.95139e-16 0 0 4 2.65024 0.242989 12.8704 -8 0 -7.10543e-15 -11.2657 -6.52183 -18.2133 -3.55271e-15 -45 -1 -0.0611402 9.7789 1.47522 1.77636e-15 -41 -2 6.49632 -1.01277 -3.55477 -1.77636e-15 -7.5 12.5 -1.37935e-33 -2.48481e-17 -3.18055e-15 1.77636e-15 -2.77556e-17 4 -4.75684 -1.63623 23.6242 
43.0951 92.8195 46.0295 -0.0198476 -2.24111 -88.8074 -7.10543e-15 8 -7.10543e-15 -2.86299 -2.89545 2.1614 0 8 7.10543e-15 0.36222 1.41466 0.504738 7.10543e-15 8 0 0.182662 0.706965 0.253464 0 8 0 0.182645 0.7069 0.253464 -7.10543e-15 17 0 1.32812 0.891655 0.0919568 0 10.8 -7.10543e-15 4.77599 9.00255 -0.204438 5 17 0 -0.844153 0.454565 0.217298 6.45 -2.84217e-14 -7.10543e-15 0.302297 -0.970497 19.8961 6.45 0 -3.55271e-15 0.514137 -6.64717 -28.3193 0 -32.4 -2 -6.82915 -6.01805 -6.92671 0 -25.65 2 2.43684 -1.54585 4.75809 -0.5 -1.5 2.65 -8.99404 -5.32595 -22.6878 0 -3.8 3.7 -0.117993 2.30745 -0.0408096 7.10543e-15 -3 2.7 -0.00866036 46.4624 0.0119466 0 -1.9 1.6 7.95139e-16 -2.93207e-15 -7.95139e-16 0 -8.3 1.9 -7.4995 -1.01093 -0.0445064 0 -4.5 0 -6.87951 -3.97569e-16 1.11319e-14 0 -3.4 0 -6.28676 -3.18055e-15 7.15625e-15 -0.25 -2.2 0.4 7.95139e-16 -2.93207e-15 -7.95139e-16 7.10543e-15 -8.3 1 -8.72626 0.688291 0.139208 0 -4.65 7.10543e-15 -7.34285 -5.96354e-16 5.56597e-15 0 -3.3 0 -6.67206 2.38542e-15 9.54166e-15 -0.5 -2.15 -0.8 7.95139e-16 -2.93207e-15 -7.95139e-16 7.10543e-15 -7.75 -0.2 -11.0565 3.70444 0.571035 -7.10543e-15 -3.8 -7.10543e-15 -1.67606 -2.18663e-15 7.95139e-16 -7.10543e-15 -3.4 0 -1.63831 -2.18663e-15 7.95139e-16 -0.75 -1.75 -1.85 7.95139e-16 -2.93207e-15 -7.95139e-16 7.10543e-15 -7.15 -1 -12.331 5.28347 0.85147 7.10543e-15 -3 0 -3.07405 1.78906e-15 1.59028e-15 0 -2.35 7.10543e-15 -2.9493 -2.38542e-15 -7.95139e-16 -5 17 0 1.81895 -2.58246 -9.86799 -6.45 0 -7.10543e-15 -0.467041 -0.645857 -16.5559 -6.45 -2.84217e-14 7.10543e-15 -1.99694 -5.27356 29.1702 0 -32.4 -2 1.2789 -8.18649 11.023 3.55271e-15 -25.65 2 -0.11423 -2.01012 9.99661 0.5 -1.5 2.65 -0.0397948 -0.526411 1.95355 0 -3.8 3.7 -6.52092e-16 9.85811 3.22822e-15 -3.55271e-15 -3 2.7 -3.18055e-15 0.847148 -0 0 -1.9 1.6 8.94531e-16 2.28602e-15 -6.36111e-15 7.10543e-15 -8.3 1.9 8.57384 0.342154 -0.0565252 0 -4.5 -1.77636e-15 4.87456 3.18055e-15 -3.18055e-15 0 -3.4 1.77636e-15 4.56842 3.18055e-15 -3.18055e-15 0.25 -2.2 0.4 8.94531e-16 2.28602e-15 -6.36111e-15 0 -8.3 1 6.41297 0.0652804 -0.0270427 0 -4.65 -3.55271e-15 17.7756 6.36111e-15 -3.18055e-15 -7.10543e-15 -3.3 1.77636e-15 14.415 3.18055e-15 -0 0.5 -2.15 -0.8 8.94531e-16 2.28602e-15 -6.36111e-15 -3.55271e-15 -7.75 -0.2 2.16021 -0.49997 -6.36135e-15 7.10543e-15 -3.8 0 9.46691 -7.95139e-16 -6.36111e-15 0 -3.4 0 8.38602 1.59028e-15 3.18055e-15 0.75 -1.75 -1.85 8.94531e-16 2.28602e-15 -6.36111e-15 0 -7.15 -1 0.00870501 -0.798325 -6.36173e-15 0 -3 -3.55271e-15 -9.93923e-17 1.3418e-15 -3.18055e-15 0 -2.35 3.55271e-15 -2.98177e-16 1.59028e-15 -0 8 0 0 0.558294 0.227664 -5.01432 0 -45 -1 -0.00664008 3.83511 0.104393 7.10543e-15 -41 -2 -2.78913 -4.22646 0.684354 0 -7.5 12.5 -7.76503e-19 -9.70628e-19 7.95139e-16 0 0 4 2.66421 0.249663 12.8702 -8 0 0 -11.2326 -6.52658 -18.2208 0 -45 -1 -0.0615089 9.81507 1.47377 1.77636e-15 -41 -2 6.42828 -1.11049 -3.55914 0 -7.5 12.5 -0 -3.72721e-17 -0 -1.77636e-15 2.77556e-17 4 -4.713 -1.57146 23.6283 
43.0817 92.8197 45.9944 -0.0190076 -2.22441 -88.7906 -7.10543e-15 8 0 -2.83818 -2.89547 2.16543 0 8 0 0.358444 1.41395 0.506577 0 8 7.10543e-15 0.180774 0.706907 0.254551 7.10543e-15 8 0 0.180757 0.706842 0.254521 7.10543e-15 17 7.10543e-15 1.34318 0.886814 0.0805504 7.10543e-15 10.8 0 4.80478 8.99996 -0.234366 5 17 0 -0.832241 0.440185 0.222959 6.45 0 0 0.304532 -0.967546 19.9002 6.45 -2.84217e-14 -3.55271e-15 0.509169 -6.62405 -28.315 0 -32.4 -2 -6.82215 -6.01835 -6.91441 1.42109e-14 -25.65 2 2.42812 -1.54456 4.7593 -0.5 -1.5 2.65 -8.99269 -5.32605 -22.6861 7.10543e-15 -3.8 3.7 -0.118012 2.31293 -0.0408098 0 -3 2.7 -0.00865929 46.4589 0.0119458 7.10543e-15 -1.9 1.6 3.97569e-16 -5.96354e-16 7.95139e-16 -7.10543e-15 -8.3 1.9 -7.49309 -1.01214 -0.0445055 0 -4.5 -3.55271e-15 -6.87986 1.19271e-15 6.36111e-15 0 -3.4 -3.55271e-15 -6.28706 -2.78299e-15 4.77083e-15 -0.25 -2.2 0.4 3.97569e-16 -5.96354e-16 7.95139e-16 0 -8.3 1 -8.71967 0.687322 0.139204 0 -4.65 0 -7.33453 1.39149e-15 1.59028e-15 7.10543e-15 -3.3 -3.55271e-15 -6.66518 -1.59028e-15 2.38542e-15 -0.5 -2.15 -0.8 3.97569e-16 -5.96354e-16 7.95139e-16 0 -7.75 -0.2 -11.049 3.7034 0.570458 0 -3.8 3.55271e-15 -1.67795 3.97569e-16 -0 7.10543e-15 -3.4 0 -1.64054 2.18663e-15 -7.95139e-16 -0.75 -1.75 -1.85 3.97569e-16 -5.96354e-16 7.95139e-16 7.10543e-15 -7.15 -1 -12.3231 5.28188 0.850453 7.10543e-15 -3 0 -3.07474 -3.18055e-15 2.38542e-15 0 -2.35 -7.10543e-15 -2.94993 0 -0 -5 17 7.10543e-15 1.82484 -2.59838 -9.86894 -6.45 -2.84217e-14 0 -0.4687 -0.647049 -16.5565 -6.45 0 0 -1.99923 -5.27842 29.1726 0 -32.4 -2 1.28213 -8.18542 11.0211 3.55271e-15 -25.65 2 -0.118895 -2.01573 9.99729 0.5 -1.5 2.65 -0.0397488 -0.526714 1.95008 0 -3.8 3.7 1.08122e-15 9.85825 6.45644e-15 0 -3 2.7 9.43535e-17 0.849798 -6.36181e-15 -3.55271e-15 -1.9 1.6 7.45443e-16 2.21148e-15 -0 0 -8.3 1.9 8.58023 0.342724 -0.0566725 0 -4.5 -5.32907e-15 4.87686 -3.18055e-15 -9.54166e-15 0 -3.4 3.55271e-15 4.56913 -1.59028e-15 -6.36111e-15 0.25 -2.2 0.4 7.45443e-16 2.21148e-15 -0 0 -8.3 1 6.41774 0.0664558 -0.0270354 0 -4.65 3.55271e-15 17.7785 -1.59028e-15 3.18055e-15 0 -3.3 3.55271e-15 14.4169 0 -0 0.5 -2.15 -0.8 7.45443e-16 2.21148e-15 -0 0 -7.75 -0.2 2.16185 -0.499888 -0 7.10543e-15 -3.8 -1.77636e-15 9.46681 -7.95139e-16 -0 0 -3.4 0 8.38606 0 3.18055e-15 0.75 -1.75 -1.85 7.45443e-16 2.21148e-15 -0 -3.55271e-15 -7.15 -1 0.00870501 -0.798768 -3.18086e-15 3.55271e-15 -3 -3.55271e-15 9.93923e-17 -1.49089e-16 -0 -7.10543e-15 -2.35 5.32907e-15 5.96354e-16 3.47873e-16 3.18055e-15 8 1.42109e-14 -7.10543e-15 0.600187 0.234164 -5.00972 0 -45 -1 -0.00638806 3.83511 0.100625 0 -41 -2 -2.81343 -4.23321 0.663732 0 -7.5 12.5 -7.76503e-19 -3.88251e-19 -0 0 8.67362e-19 4 2.67814 0.255462 12.8705 -8 2.84217e-14 0 -11.1967 -6.52702 -18.2268 0 -45 -1 -0.0619363 9.84594 1.47158 0 -41 -2 6.4105 -1.1397 -3.56519 0 -7.5 12.5 2.75869e-33 -2.48481e-17 6.36111e-15 1.77636e-15 0 4 -4.71478 -1.57578 23.6283 
